#!OML:ASF E:/inclinewalkrobotboard/Project1/Captureday1/Session1/subject1.ASF
:FULLY-SPECIFIED
:DEGREES
276
root 0 0 0 -2.621593391533047 -5.015917077733917 -7.106572058148167
lowerback 10.289474902703963 1.3881560625110536 5.771577535765161
upperback -0.17143077821781705 2.6950436593976574 2.4079325225292836
thorax -5.817391013847558 1.2093920207840125 -1.1200186821021423
lowerneck -17.991973283620517 -3.0988962037956953 -1.4987983927128572
upperneck 21.4670672584401 -4.049314560097297 0.25144810610512325
head 9.843728735941951 -1.9156894796232802 -0.2162540668613427
rclavicle -7.30053528610684E-15 2.15802355741545E-15
rhumerus -32.286819810734556 -19.289043539298994 -79.67597085086437
rradius 22.240460681413268
rwrist 5.463318466830693
rhand -18.192528115296064 26.035315971176544
rfingers 7.125020000000017
rthumb 8.083190447082707 -3.778454763460857
lclavicle -8.70643535793183E-15 1.3647380638567928E-15
lhumerus -32.64071296339106 -0.06663648267718766 84.31003945428864
lradius 27.002930624871382
lwrist 6.251452007573291
lhand -27.551948405013263 24.64732760626499
lfingers 7.125020000000028
lthumb -0.9557412330198582 54.63559833809689
rfemur -4.865279378816214 8.322133104691062 34.691080498612315
rtibia 25.123880580648247
rfoot -21.8460639117469 -6.40823896445165
rtoes 10.106012726080047
lfemur -27.875199334545215 4.33357642208322 -12.741213052931181
ltibia 60.43959410039396
lfoot -2.5541877618837905 -5.271044339525382
ltoes -2.9685618139791607
277
root 0 0 0 -1.737928427034392 -5.709207329820914 -7.519307739919062
lowerback 10.61349382672108 1.7761959126934639 6.494899138526373
upperback 0.38424726394268954 3.271027906583506 2.2744567716200166
thorax -5.338628091726127 1.4749594930469436 -1.739688539160059
lowerneck -18.731302649240213 -3.226358899996422 -1.8502999995472904
upperneck 20.671890076325408 -4.160710190669665 0.30841219173929213
head 9.660776519612927 -1.9816340203833933 -0.1577489365749149
rclavicle -7.233457653262312E-15 2.832929918394698E-15
rhumerus -31.13817843512158 -17.14308170140238 -80.55140956970206
rradius 24.217143441192377
rwrist 4.163788645831549
rhand -18.484697550929393 26.174148407529024
rfingers 7.125020000000015
rthumb 7.800100615597664 -3.672183538315153
lclavicle -7.963009980886991E-15 2.1958490971268638E-15
lhumerus -33.04324602478261 0.27986576211154746 84.5169282093665
lradius 26.583542680066007
lwrist 6.158460788894365
lhand -27.568202813028787 24.489979488096246
lfingers 7.1250200000000286
lthumb -0.9713562962339077 54.48168344321304
rfemur -4.202754308574448 8.302222699310718 34.51276386461135
rtibia 24.48311268361149
rfoot -22.167100798834245 -6.693470046585603
rtoes 9.508707532968685
lfemur -29.69971027503962 2.3255199355723484 -13.523044870299607
ltibia 42.88373038481139
lfoot -6.744522298236582 -0.25309448047342675
ltoes -1.1188006914382171
278
root 0 0 0 -1.1573133111481015 -6.087409016314382 -7.46414841295422
lowerback 10.543637540809371 1.9657876058885093 6.553317210266157
upperback 0.6526935838277631 3.490738573717544 2.0959595754582794
thorax -5.003312221783211 1.5835276416653885 -1.9929381298726958
lowerneck -18.32548785288995 -3.1304662257871225 -1.8595091383771614
upperneck 19.564252879469006 -3.9702271120138035 0.3090510878205035
head 9.167823571859838 -1.9234030509466677 -0.12168635527077842
rclavicle -7.317574769415528E-15 2.181043044157887E-15
rhumerus -30.165172212642005 -15.389692407151326 -81.0974479792025
rradius 25.741608424750098
rwrist 3.0694875519512737
rhand -18.702027588324427 26.42361185304066
rfingers 7.125020000000012
rthumb 7.589965541712954 -3.4395570295880518
lclavicle -7.607553151669926E-15 1.7237142479496138E-15
lhumerus -33.41441218919729 0.9142659398601074 84.59037740752382
lradius 25.93595594940338
lwrist 5.995219075400663
lhand -27.596639790787776 24.667201319667196
lfingers 7.125020000000028
lthumb -1.001315877197995 54.66762436809337
rfemur -2.299673910811091 8.367903740981538 34.783421254892666
rtibia 24.453492834541557
rfoot -22.27495132569631 -6.646979391352346
rtoes 7.23845122661416
lfemur -27.556657534390677 -1.9580227930143352 -13.417362137915047
ltibia 25.03115021059835
lfoot -5.920962639682472 2.7070109390173593
ltoes -0.03391692678477298
279
root 0 0 0 -0.8477546327432274 -6.258787704973761 -7.400433306413854
lowerback 10.47310634290772 2.0558120799058455 6.516174498368336
upperback 0.7494839972863551 3.5812076763848832 1.9775413977196135
thorax -4.861689609097112 1.6291372467660477 -2.1117302274721537
lowerneck -18.021171490733224 -3.03126497626483 -1.812427920860542
upperneck 18.549919729660395 -3.801089234680403 0.296343070241164
head 8.74138033594204 -1.8645631302749501 -0.10340076906773016
rclavicle -7.57348944382184E-15 9.690505398544247E-16
rhumerus -29.82597353153792 -14.90329561566966 -81.12476838407134
rradius 26.24938203770732
rwrist 2.4669728212791258
rhand -18.789516030534035 26.482378797423593
rfingers 7.12502000000001
rthumb 7.506137674709597 -3.3792454315304923
lclavicle -7.983020486309396E-15 4.551264686229363E-16
lhumerus -33.93302341784782 1.6902627369523096 84.52434929029502
lradius 25.19226033738246
lwrist 5.6822673376551665
lhand -27.579173044753816 24.726716349485145
lfingers 7.125020000000029
lthumb -0.982064527111767 54.73034408035131
rfemur 5.196315209841603 8.719585881242754 35.94977596719059
rtibia 24.135359187670574
rfoot -21.506572884959507 -5.326544502124484
rtoes -0.24505735815075824
lfemur -26.675411994713702 -4.237481028177166 -12.666870241849274
ltibia 21.38763724506495
lfoot -5.113670352690248 3.827778857803779
ltoes 0.3594383155299212
